<svg version="1.2" xmlns="http://www.w3.org/2000/svg" viewBox="0 0 182 183" width="182" height="183">
    <defs>
        <clipPath clipPathUnits="userSpaceOnUse" id="cp1">
            <path d="m-307-4770h1920v11023h-1920z"/>
        </clipPath>
        <filter x="-50%" y="-50%" width="200%" height="200%" id="f1">
            <feDropShadow dx="-1.8369701987210297e-16" dy="3" stdDeviation="9.583333333333334" flood-color="#000000"
                          flood-opacity=".2"/>
        </filter>
    </defs>
    <style>.a{filter:url(#f1);fill:#2e3191}</style>
    <g clip-path="url(#cp1)">
        <path fill-rule="evenodd" class="a"
              d="m91 156c-9 0-17.8-1.8-26.1-5.3-8-3.3-15.1-8.2-21.3-14.3-6.1-6.2-11-13.3-14.3-21.3-3.5-8.3-5.3-17.1-5.3-26.1 0-9 1.8-17.8 5.3-26.1 3.3-8 8.2-15.1 14.3-21.3 6.2-6.1 13.3-11 21.3-14.3 8.3-3.5 17.1-5.3 26.1-5.3 9 0 17.8 1.8 26.1 5.3 8 3.3 15.1 8.2 21.3 14.3 6.1 6.2 11 13.3 14.3 21.3 3.5 8.3 5.3 17.1 5.3 26.1 0 9-1.8 17.8-5.3 26.1-3.3 8-8.2 15.1-14.3 21.3-6.2 6.1-13.3 11-21.3 14.3-8.3 3.5-17.1 5.3-26.1 5.3zm-15.5-46.8q2.8 2.1 5.8 3.3l1.3 9c0.1 0.8 0.8 1.4 1.6 1.4h13.6c0.8 0 1.6-0.6 1.7-1.4l1.2-9c2-0.8 3.8-1.9 5.8-3.3l8.4 3.4q0.3 0.1 0.6 0.1c0.6 0 1.2-0.3 1.5-0.9l6.8-11.7c0.4-0.8 0.2-1.7-0.4-2.2l-7.2-5.6c0.1-0.9 0.3-2 0.3-3.3 0-1.2-0.2-2.4-0.3-3.3l7.2-5.6c0.6-0.5 0.8-1.4 0.4-2.2l-6.8-11.7c-0.3-0.6-0.9-0.9-1.5-0.9q-0.3 0-0.6 0.1l-8.4 3.4q-2.7-2.1-5.8-3.3l-1.2-9c-0.1-0.8-0.9-1.4-1.7-1.4h-13.6c-0.8 0-1.5 0.6-1.6 1.4l-1.3 9c-2 0.8-3.8 1.9-5.8 3.3l-8.4-3.4q-0.3-0.1-0.6-0.1c-0.6 0-1.2 0.3-1.5 0.9l-6.8 11.7c-0.4 0.7-0.2 1.6 0.4 2.2l7.2 5.6c-0.2 1.3-0.2 2.3-0.2 3.3 0 1 0 2 0.2 3.3l-7.2 5.6c-0.6 0.5-0.8 1.4-0.4 2.2l6.8 11.7c0.3 0.6 0.9 0.9 1.5 0.9q0.3 0 0.6-0.1l8.4-3.4zm17.9 6.9h-4.8l-0.6-4.5-0.6-3.9-3.6-1.4c-1.4-0.6-2.8-1.4-4.1-2.4l-3.1-2.4-3.6 1.4-4.3 1.8-2.4-4.1 3.7-2.9 3-2.4-0.5-3.8c-0.1-1-0.2-1.8-0.2-2.5 0-0.6 0.1-1.4 0.2-2.5l0.5-3.8-3-2.4-3.7-2.8 2.4-4.1 4.3 1.7 3.5 1.4 3.1-2.3c1.4-1.1 2.8-1.9 4.2-2.5l3.6-1.4 0.6-3.9 0.6-4.5h4.7l0.7 4.5 0.5 3.9 3.6 1.4c1.5 0.6 2.9 1.4 4.2 2.4l3.1 2.4 3.6-1.4 4.3-1.8 2.4 4.1-3.7 2.9-3 2.4 0.5 3.8c0.1 1 0.2 1.7 0.2 2.5 0 0.7-0.1 1.5-0.2 2.5l-0.5 3.8 3 2.4 3.7 2.8-2.4 4.1-4.3-1.7-3.5-1.4-3.1 2.3c-1.4 1.1-2.8 1.9-4.2 2.5l-3.6 1.4-0.5 3.9-0.7 4.5zm-2.4-40.7c-7.5 0-13.6 6.1-13.6 13.6 0 7.5 6.1 13.6 13.6 13.6 7.5 0 13.6-6.1 13.6-13.6 0-7.5-6.1-13.6-13.6-13.6zm0 20.4c-3.7 0-6.8-3.1-6.8-6.8 0-3.7 3.1-6.8 6.8-6.8 3.7 0 6.8 3.1 6.8 6.8 0 3.7-3.1 6.8-6.8 6.8z"/>
    </g>
</svg>