<svg version="1.2" xmlns="http://www.w3.org/2000/svg" viewBox="0 0 36 26" width="36" height="26"><defs><clipPath clipPathUnits="userSpaceOnUse" id="cp1"><path d="m-1321-2939h1920v11023h-1920z"/></clipPath></defs><style>.a{fill:#ffca05}</style><g clip-path="url(#cp1)"><path fill-rule="evenodd" class="a" d="m36 13c-2.8 7.2-9.8 12.3-18 12.3-8.2 0-15.2-5.1-18-12.3 2.8-7.2 9.8-12.3 18-12.3 8.2 0 15.2 5.1 18 12.3zm-32.4 0c2.7 5.5 8.2 9 14.4 9 6.2 0 11.7-3.5 14.4-9-2.7-5.5-8.2-9-14.4-9-6.2 0-11.7 3.5-14.4 9zm21.8 0c0 4.1-3.3 7.4-7.4 7.4-4.1 0-7.4-3.3-7.4-7.4 0-4.1 3.3-7.4 7.4-7.4 4.1 0 7.4 3.3 7.4 7.4zm-11.5 0c0 2.3 1.8 4.1 4.1 4.1 2.3 0 4.1-1.8 4.1-4.1 0-2.3-1.8-4.1-4.1-4.1-2.3 0-4.1 1.8-4.1 4.1z"/></g></svg>