<svg version="1.2" xmlns="http://www.w3.org/2000/svg" viewBox="0 0 182 183" width="182" height="183"><defs><clipPath clipPathUnits="userSpaceOnUse" id="cp1"><path d="m-869-4770h1920v11023h-1920z"/></clipPath><filter x="-50%" y="-50%" width="200%" height="200%" id="f1" ><feDropShadow dx="-1.8369701987210297e-16" dy="3" stdDeviation="9.583333333333334" flood-color="#000000" flood-opacity=".2"/></filter></defs><style>.a{filter:url(#f1);fill:#2e3191}</style><g clip-path="url(#cp1)"><path fill-rule="evenodd" class="a" d="m91 156c-9 0-17.8-1.8-26.1-5.3-8-3.3-15.1-8.2-21.3-14.3-6.1-6.2-11-13.3-14.3-21.3-3.5-8.3-5.3-17.1-5.3-26.1 0-9 1.8-17.8 5.3-26.1 3.3-8 8.2-15.1 14.3-21.3 6.2-6.1 13.3-11 21.3-14.3 8.3-3.5 17.1-5.3 26.1-5.3 9 0 17.8 1.8 26.1 5.3 8 3.3 15.1 8.2 21.3 14.3 6.1 6.2 11 13.3 14.3 21.3 3.5 8.3 5.3 17.1 5.3 26.1 0 9-1.8 17.8-5.3 26.1-3.3 8-8.2 15.1-14.3 21.3-6.2 6.1-13.3 11-21.3 14.3-8.3 3.5-17.1 5.3-26.1 5.3zm0-99.6c-18 0-32.6 14.6-32.6 32.6 0 18 14.6 32.6 32.6 32.6 18 0 32.6-14.6 32.6-32.6 0-18-14.6-32.6-32.6-32.6zm0 58.7c-3 0-5.9-0.5-8.6-1.5-2.7-1-5.2-2.3-7.5-4.1 0.7-1.4 3-2.9 6.3-4 3.2-1.2 6.9-1.8 9.8-1.8 2.9 0 6.6 0.6 9.8 1.8 3.4 1.1 5.6 2.6 6.3 4-2.3 1.8-4.8 3.1-7.5 4.1-2.7 1-5.6 1.5-8.6 1.5zm-20.7-10.4c-3.5-4.6-5.4-10-5.4-15.7 0-14.4 11.7-26.1 26.1-26.1 14.4 0 26.1 11.7 26.1 26.1 0 5.7-1.9 11.1-5.4 15.7-2.5-3.1-7-4.9-10.3-5.9-4.1-1.2-8.2-1.7-10.4-1.7-2.2 0-6.3 0.5-10.4 1.7-3.3 1-7.8 2.8-10.3 5.9zm20.7-35.3c-6.3 0-11.4 5.2-11.4 11.4 0 6.3 5.1 11.5 11.4 11.5 6.3 0 11.4-5.2 11.4-11.5 0-6.2-5.1-11.4-11.4-11.4zm0 16.3c-2.7 0-4.9-2.2-4.9-4.9 0-2.6 2.2-4.8 4.9-4.8 1.3 0 2.5 0.5 3.5 1.4 0.9 0.9 1.4 2.1 1.4 3.4 0 2.7-2.2 4.9-4.9 4.9z"/></g></svg>