<svg version="1.2" xmlns="http://www.w3.org/2000/svg" viewBox="0 0 18 18" width="18" height="18"><defs><clipPath clipPathUnits="userSpaceOnUse" id="cp1"><path d="m-1028-10600h1920v11023h-1920z"/></clipPath></defs><style>.a{fill:#ffca05}</style><g clip-path="url(#cp1)"><path fill-rule="evenodd" class="a" d="m5.5 1q0 1.9 0.6 3.6c0.1 0.3 0 0.7-0.3 1l-2.2 2.2c1.5 2.8 3.8 5.1 6.6 6.6l2.2-2.2q0.3-0.3 0.7-0.3 0.2 0 0.3 0c1.1 0.4 2.4 0.6 3.6 0.6 0.5 0 1 0.5 1 1v3.5c0 0.5-0.5 1-1 1-9.4 0-17-7.6-17-17 0-0.6 0.4-1 1-1h3.5c0.5 0 1 0.4 1 1zm6.7 14.2q1.8 0.6 3.8 0.8v-1.5q-1.3-0.1-2.6-0.5zm-10.2-13.2q0.2 2 0.8 3.8l1.2-1.2q-0.4-1.3-0.5-2.6z"/></g></svg>