<svg version="1.2" xmlns="http://www.w3.org/2000/svg" viewBox="0 0 182 183" width="182" height="183"><defs><clipPath clipPathUnits="userSpaceOnUse" id="cp1"><path d="m-1426-4770h1920v11023h-1920z"/></clipPath><filter x="-50%" y="-50%" width="200%" height="200%" id="f1" ><feDropShadow dx="-1.8369701987210297e-16" dy="3" stdDeviation="9.583333333333334" flood-color="#000000" flood-opacity=".2"/></filter></defs><style>.a{filter:url(#f1);fill:#2e3191}</style><g clip-path="url(#cp1)"><path fill-rule="evenodd" class="a" d="m91 156c-9 0-17.8-1.8-26.1-5.3-8-3.3-15.1-8.2-21.3-14.3-6.1-6.2-11-13.3-14.3-21.3-3.5-8.3-5.3-17.1-5.3-26.1 0-9 1.8-17.8 5.3-26.1 3.3-8 8.2-15.1 14.3-21.3 6.2-6.1 13.3-11 21.3-14.3 8.3-3.5 17.1-5.3 26.1-5.3 9 0 17.8 1.8 26.1 5.3 8 3.3 15.1 8.2 21.3 14.3 6.1 6.2 11 13.3 14.3 21.3 3.5 8.3 5.3 17.1 5.3 26.1 0 9-1.8 17.8-5.3 26.1-3.3 8-8.2 15.1-14.3 21.3-6.2 6.1-13.3 11-21.3 14.3-8.3 3.5-17.1 5.3-26.1 5.3zm-29.7-63.3l18.9 18.9 40.5-40.5-4.7-4.7-35.8 35.8-14.2-14.2z"/></g></svg>