<svg version="1.2" xmlns="http://www.w3.org/2000/svg" viewBox="0 0 115 118" width="115" height="118"><defs><clipPath clipPathUnits="userSpaceOnUse" id="cp1"><path d="m-301-10325h1920v11023h-1920z"/></clipPath></defs><style>.a{fill:#fff}.b{fill:#ffca05}</style><g clip-path="url(#cp1)"><path class="a" d="m41.8 35.9c0.4-1.9-0.1-3.7-0.5-5.6-1.1-6.5-2.6-13-2.9-19.5-0.3-6.7-0.3-6.9 7.1-8.8 9.7-2.6 19.2-2.1 28.7 1 2.5 0.9 3.5 2.3 3.5 4.5 0.2 5.4-1 10.8-1.8 16.2-0.6 4-1.9 8-1.9 12.2 1.1 0 1.1-0.6 1.2-1 2.9-7.5 5-15.1 6.7-22.9 0.4-1.7 1-2 2.7-0.9 10.2 7 16.8 15.8 18.4 27 0.2 1.2 0.3 2.3 1.3 3.2 4.2 4 3 8.8 3.1 13.4 0 1.2-1.2 1.4-2.3 1.4-2 0-8.1 0-10.1 0-2.6 0-5.4-0.5-7.1 2-0.6 0.8-1.9 0.7-3 0.7-20.6 0-33.1 0-53.7 0-1.1 0-2.6 0.1-3.2-0.8-1.5-2.2-3.9-1.9-6.2-1.9-2.3 0-8.5 0-10.7 0-1.6 0-2.6-0.5-2.6-2 0.1-3.1-0.9-6.7 1.1-9.3 4.1-5.4 3.7-11.9 6.8-17.5 3.6-6.3 8.4-11.6 14.7-16 1.7-1.1 2.6-1.5 3.1 0.9 1.6 7.6 3.7 15.2 6.6 22.6 0.1 0.4 0 1 1 1.1z"/><path class="a" d="m55.8 86.1q0 1.2 0.5 1.9-3.3-0.3-6.5-1.2c0.6-0.9 1.1-2.2 1.6-3.5l3.8-13.5c0.3-1 0.4-2.3 0.7-3 0.4 2.1-0.1 16.6-0.1 19.3z"/><path class="a" d="m76.9 61.9h12.3c-1.1 7.1-4.7 13.3-9.7 17.9q0-0.1-0.1-0.2l-1.7-4c-0.5-1.2-1.5-2.5-2.7-3 2.5-0.4 4.5-2.8 4.5-5.7 0-2.1-1-3.9-2.6-5z"/><path class="a" d="m44.6 64.5c-0.3-0.9-0.7-1.8-1.3-2.6h10.4c-0.6 1.6-1.2 3.5-1.8 5.3l-2.5 7.6c-0.2 0.8-0.4 1.4-0.6 2.2-0.2-0.9-0.5-2.2-1.2-4.1z"/><path class="a" d="m45.6 83.6q0.4 1.2 0.8 2-3.2-1.5-6.1-3.5c0-4.1 0.4-12.4 0.9-15.4 0.3 0.8 0.6 2.5 1 3.6z"/><path class="a" d="m64.4 85.3c0 0.8 0.3 1.5 0.8 2q-2.5 0.6-5 0.7c0-5.3 0.1-19.5-0.1-22.7-0.1-1.4-0.2-2.5-0.5-3.4h4.8z"/><path class="a" d="m75.1 67.6c0 1.9-1.5 2.9-3.3 2.9-1.1 0-2.1 0-3-0.2v-5.7c0.4-0.1 1.5-0.2 1.9-0.2h1.2c1.9 0 3.2 0.5 3.2 3.2z"/><path class="a" d="m37.6 61.9c-0.7 4.3-1.4 11.9-1.5 16.5-4.3-4.4-7.3-10-8.3-16.5z"/><path class="a" d="m76.7 82.1c-2.4 1.7-5.1 3.1-7.9 4.2v-12.5c0.4 0 1.2 0.1 2.1 0.2 1.1 0.2 2 0.4 3 2.7l1.6 3.9c0.3 0.7 0.7 1.2 1.2 1.5z"/><path class="b" d="m19.6 61.8c2 9.2 7.1 17.4 14 23.5 3.4 3 7.4 5.4 11.6 7 0.5 0.2 1.1 0.4 1.6 0.6l1.6 0.5c1.1 0.3 2.2 0.5 3.3 0.7 0.6 0.1 1.2 0.2 1.7 0.2 0.6 0.1 1.2 0.2 1.7 0.2 1.2 0.1 2.3 0.2 3.4 0.2 4.6 0.1 9.1-0.7 13.3-2.4 2.2-0.7 4.2-1.8 6.1-3 1-0.6 2-1.2 2.9-1.9 0.4-0.4 0.9-0.7 1.3-1l1.3-1.1c0.5-0.4 0.9-0.8 1.3-1.2 0.4-0.4 0.9-0.8 1.3-1.2 0.8-0.8 1.6-1.7 2.3-2.5 1.5-1.8 2.9-3.6 4-5.6 1.2-2 2.2-4.1 3.1-6.3q1.2-3.3 2.1-6.7-0.4 3.5-1.4 6.9-1 3.5-2.6 6.7c-1.1 2.1-2.3 4.2-3.8 6.1-0.7 1-1.5 1.8-2.3 2.7-0.4 0.5-0.8 0.9-1.3 1.3-0.4 0.5-0.8 0.9-1.2 1.3-1.8 1.7-3.7 3.2-5.7 4.5-2 1.3-4.2 2.5-6.4 3.4-4.5 1.8-9.4 2.7-14.3 2.7-1.2 0-2.4-0.1-3.6-0.2-0.6 0-1.2-0.1-1.8-0.2-0.6-0.1-1.2-0.1-1.8-0.3-1.2-0.3-2.4-0.4-3.6-0.8l-1.7-0.5c-0.6-0.2-1.2-0.5-1.7-0.7-0.6-0.3-1.2-0.5-1.7-0.7l-1.6-0.8-0.8-0.5q-0.4-0.2-0.8-0.4l-1.6-1c-0.5-0.3-1-0.7-1.5-1l-1.4-1.1c-1-0.8-1.9-1.5-2.8-2.4-6.9-6.6-11.6-15.6-12.5-25z"/><path class="a" d="m106.1 60.5c0 0.6-0.1 1.2-0.2 1.9 0 0.6-0.1 1.2 0.1 1.8 0.1 0.6 0.5 1 1.1 1.3 0.5 0.3 1 0.5 1.6 0.8l3.5 1.3c0.5 0.2 1.1 0.5 1.6 0.9 0.6 0.4 1 1 1.1 1.7 0 0.7-0.1 1.3-0.3 1.9l-0.6 1.8q-0.6 1.8-1.2 3.5-0.6 1.7-1.3 3.5c-0.2 0.6-0.7 1.3-1.4 1.6-0.7 0.3-1.5 0.3-2.2 0.1q-0.2-0.1-0.4-0.1l-0.5-0.2-0.8-0.3-1.8-0.7c-1.1-0.5-2.3-1.1-3.2-0.9-0.4 0.1-0.7 0.4-1.1 0.8-0.3 0.4-0.6 0.9-0.9 1.5q-1 1.6-2.1 3.1-1 1.5-2.3 3-0.6 0.7-1.2 1.4c-0.4 0.4-0.7 0.8-0.9 1.2-0.2 0.5-0.2 0.8 0 1.3 0.1 0.5 0.4 1 0.7 1.5l2 3.1c0.3 0.5 0.6 1 1 1.6 0.3 0.6 0.6 1.3 0.6 2.2 0 0.4-0.1 0.9-0.3 1.2q-0.3 0.6-0.7 1c-0.6 0.6-1.1 0.9-1.6 1.2q-3 2.2-6.1 4.3l-0.3 0.3c-0.2 0-0.3 0.1-0.5 0.2-0.3 0.2-0.8 0.4-1.2 0.4-0.5 0.1-1 0-1.4-0.2q-0.6-0.2-1.1-0.7-0.4-0.4-0.7-0.8c-0.2-0.3-0.3-0.5-0.5-0.8l-1-1.6-1-1.5-0.5-0.8-0.2-0.4c-0.1-0.1-0.2-0.2-0.2-0.3q-0.5-0.6-0.9-0.6c-0.3-0.1-0.7 0-1.2 0.2q-3.5 1.5-7.1 2.5-1.8 0.5-3.7 0.8-0.9 0.2-1.9 0.3l-0.9 0.2q-0.3 0-0.6 0.1-0.5 0.2-0.7 0.8-0.2 0.2-0.2 0.6c0 0.1-0.1 0.2-0.1 0.4v0.4l-0.4 3.7-0.2 1.8c0 0.6-0.1 1.4-0.5 2.2-0.2 0.4-0.4 0.8-0.8 1.1-0.4 0.3-0.9 0.5-1.3 0.6q-0.7 0.1-1.2 0h-1q-3.7-0.3-7.4-0.9l-0.9-0.1h-0.2l-0.3-0.1q-0.4-0.1-0.7-0.2c-0.8-0.4-1.4-1.3-1.7-2.1q-0.1-0.6-0.1-1.2c0-0.2 0-0.4 0-0.5l0.1-0.5q0-0.9 0.1-1.9 0.1-0.9 0.2-1.8c0.1-0.7 0.2-1.2 0.2-1.8 0.1-0.5 0-1-0.1-1.4q-0.1-0.2-0.3-0.4-0.2-0.2-0.5-0.3c-0.4-0.3-0.9-0.5-1.5-0.7q-0.9-0.3-1.8-0.6-1.7-0.7-3.4-1.5-0.9-0.4-1.7-0.8l-1.6-0.9c-0.5-0.3-1-0.4-1.4-0.5-0.3 0-0.6 0.1-1 0.5-0.3 0.3-0.7 0.7-1.1 1.2l-1.2 1.4-1.1 1.4-0.6 0.7-0.3 0.4q-0.2 0.2-0.4 0.4c-0.6 0.5-1.4 1-2.3 1-0.9 0-1.7-0.4-2.3-0.9l-0.2-0.2-0.2-0.1-0.3-0.4-0.7-0.6-1.3-1.3-2.7-2.6-1.3-1.3c-0.5-0.4-1-1.1-1.2-1.9-0.1-0.4-0.1-0.9 0-1.3 0.1-0.4 0.3-0.8 0.5-1.1 0.2-0.3 0.4-0.6 0.6-0.8l0.6-0.7 2.5-2.8c0.8-0.9 1.3-1.8 1.2-2.6-0.1-0.5-0.4-1-0.7-1.4q-0.5-0.8-1.1-1.5-2.1-3.1-3.7-6.5l-0.4-0.9-0.2-0.4q-0.1-0.2-0.2-0.4c-0.2-0.5-0.5-0.8-0.9-1-0.4-0.3-0.9-0.3-1.5-0.2l-1.8 0.4-3.6 0.8c-0.5 0.1-1.3 0.3-2 0.1-0.7-0.1-1.4-0.5-1.7-1.1q-0.3-0.5-0.4-1c-0.1-0.3-0.2-0.6-0.2-0.9l-0.4-1.8-0.7-3.7-0.4-1.8c-0.1-0.6-0.3-1.2-0.3-1.8 0-0.7 0.1-1.4 0.5-1.9 0.5-0.5 1.1-0.8 1.7-1 1.2-0.3 2.4-0.5 3.6-0.8 0.6-0.1 1.2-0.2 1.8-0.4 0.6-0.1 1.2-0.4 1.6-0.8-0.4 0.4-1 0.7-1.6 0.9-0.6 0.2-1.2 0.3-1.8 0.5-1.1 0.3-2.3 0.6-3.5 0.9-0.6 0.2-1.1 0.5-1.4 0.9-0.4 0.5-0.5 1.1-0.4 1.7 0 0.5 0.2 1.1 0.3 1.7l0.4 1.8 0.9 3.6 0.4 1.8c0.1 0.6 0.3 1.2 0.6 1.6 0.2 0.4 0.7 0.7 1.2 0.8 0.5 0 1-0.1 1.6-0.2l3.6-0.9c0.6-0.2 1.2-0.3 1.8-0.5 0.7-0.1 1.5-0.1 2.2 0.2 0.7 0.3 1.2 1 1.5 1.6q0.1 0.2 0.2 0.4l0.2 0.4 0.4 0.8q1.7 3.3 3.8 6.3 0.5 0.7 1.1 1.4c0.4 0.6 0.8 1.2 0.9 2q0.2 0.5 0.1 1.1-0.1 0.6-0.4 1.1c-0.3 0.7-0.8 1.3-1.2 1.7l-2.3 2.8-0.6 0.7c-0.2 0.2-0.4 0.4-0.5 0.7q-0.4 0.6-0.2 1.1c0.1 0.4 0.3 0.7 0.7 1.1l1.4 1.3 2.6 2.5 1.4 1.2 0.6 0.7 0.4 0.3 0.1 0.1 0.2 0.2c0.8 0.6 1.4 0.6 2.1-0.1q0.1-0.1 0.2-0.2l0.3-0.4 0.6-0.7 1.1-1.4 1.2-1.4c0.4-0.5 0.8-1.1 1.4-1.5 0.2-0.3 0.6-0.5 1-0.7 0.4-0.2 0.9-0.3 1.3-0.3 0.9 0.1 1.6 0.4 2.2 0.7l1.6 0.8q0.8 0.5 1.7 0.8 1.6 0.8 3.3 1.4 0.8 0.4 1.7 0.7c0.6 0.2 1.2 0.4 1.9 0.7q0.5 0.3 0.9 0.7c0.3 0.4 0.6 0.8 0.8 1.2 0.3 0.8 0.3 1.6 0.2 2.2 0 0.7-0.1 1.4-0.2 2q-0.1 0.8-0.2 1.7-0.1 0.9-0.1 1.8v0.5c-0.1 0.1-0.1 0.3-0.1 0.4q0 0.4 0.1 0.6 0.2 0.6 0.6 0.7 0.1 0.1 0.2 0.1h0.1l0.2 0.1 0.9 0.1q3.7 0.5 7.3 0.8l0.9 0.1q0.4 0 0.6 0c0.4-0.1 0.5-0.2 0.7-0.6q0.1-0.2 0.2-0.6c0-0.2 0.1-0.5 0.1-0.8l0.2-1.8 0.4-3.7c0-0.6 0.1-1.4 0.5-2.1 0.3-0.8 1-1.5 1.8-1.8 0.3-0.2 0.8-0.3 1.1-0.3l0.9-0.2q0.9-0.1 1.8-0.3 1.8-0.3 3.5-0.7 3.5-0.9 6.9-2.4c0.6-0.3 1.5-0.5 2.4-0.3 0.4 0.1 0.8 0.3 1.2 0.5q0.5 0.4 0.9 0.9c0.1 0.1 0.2 0.3 0.3 0.4l0.2 0.4 0.5 0.8 1 1.6 0.9 1.5c0.2 0.3 0.4 0.6 0.5 0.8q0.2 0.3 0.5 0.5 0.5 0.5 0.9 0.4 0.2 0 0.5-0.1c0-0.1 0.2-0.2 0.3-0.2l0.4-0.3q3.1-2 6-4.1c0.5-0.4 1.1-0.8 1.4-1.1q0.5-0.4 0.5-1c0.1-0.3-0.1-0.8-0.3-1.3-0.3-0.5-0.7-1-1-1.5l-1.9-3.2c-0.3-0.5-0.7-1.1-0.9-1.8-0.2-0.7-0.2-1.7 0.2-2.4 0.3-0.7 0.7-1.2 1.2-1.7q0.6-0.6 1.2-1.3 1.2-1.4 2.3-2.8 1.1-1.5 2.1-3c0.3-0.5 0.6-1.1 1-1.6 0.3-0.3 0.5-0.6 0.8-0.8 0.3-0.2 0.7-0.4 1.1-0.4 0.8-0.2 1.5 0.1 2.1 0.3 0.7 0.2 1.2 0.5 1.8 0.7l1.7 0.7 0.8 0.4 0.4 0.2q0.2 0 0.4 0.1c0.5 0.1 1.1 0.1 1.5 0 0.4-0.2 0.8-0.6 1-1.1q0.7-1.7 1.4-3.4 0.6-1.7 1.3-3.4l0.6-1.8c0.2-0.5 0.3-1.1 0.3-1.6 0-0.6-0.3-1.1-0.8-1.4-0.4-0.4-1-0.6-1.5-0.9l-3.4-1.4c-0.6-0.3-1.1-0.5-1.7-0.9-0.2-0.2-0.5-0.4-0.7-0.6q-0.3-0.4-0.4-0.9c-0.2-1.3 0.3-2.5 0.3-3.7z"/></g></svg>