<svg version="1.2" xmlns="http://www.w3.org/2000/svg" viewBox="0 0 15 21" width="15" height="21"><defs><clipPath clipPathUnits="userSpaceOnUse" id="cp1"><path d="m-1028-10559h1920v11023h-1920z"/></clipPath></defs><style>.a{fill:#ffca05}</style><g clip-path="url(#cp1)"><path fill-rule="evenodd" class="a" d="m14.2 7.1c0 5.3-7.1 13.2-7.1 13.2 0 0-7.1-7.9-7.1-13.2 0-3.9 3.2-7.1 7.1-7.1 3.9 0 7.1 3.2 7.1 7.1zm-7.1 10c2.2-2.7 5.1-7.1 5.1-10 0-2.8-2.3-5.1-5.1-5.1-2.8 0-5.1 2.3-5.1 5.1 0 2.9 3 7.3 5.1 10z"/><circle class="a" cx="7.1" cy="7.1" r="2.5"/></g></svg>