<svg version="1.2" xmlns="http://www.w3.org/2000/svg" viewBox="0 0 272 86" width="272" height="86">
    <defs>
        <clipPath clipPathUnits="userSpaceOnUse" id="cp1">
            <path d="m-136-41h1920v11023h-1920z"/>
        </clipPath>
    </defs>
    <style>.a{fill:#fff}.b{fill:#ffca05}</style>
    <g clip-path="url(#cp1)">
        <path class="a"
              d="m126.9 53.1c-1.6 0-2.7-0.9-2.7-2.7 0-2.6-0.4-10.1-0.7-12.2-0.3 0.7-0.7 1.5-1 2.5l-2.9 8.8c-0.5 1.4-1.1 2.8-1.7 3.6h-1.1c-1.3 0-2.5-1-3.3-3.2l-2.9-8.7c-0.3-1-0.8-2.3-1.1-3-0.6 2.9-0.9 11.2-0.9 14.9h-1.5c-1.5 0-2.5-1-2.5-2.7 0-4.6 0.9-13.7 1.6-17.8h0.9c2.8 0 4.8 1.3 5.6 3.5l2.9 8c0.6 1.7 0.9 3 1.1 3.9 0.2-0.8 0.4-1.4 0.6-2.1l2.4-7.3c1-3.2 2.3-5.3 3.2-6h0.4c2.3 0 3.8 1.4 4.1 4.3 0.4 3.2 1 12.1 1 16.2z"/>
        <path fill-rule="evenodd" class="a"
              d="m145.1 53.3c-1.3 0-2.5-0.5-3-1.9l-1.5-3.7c-0.9-2.2-1.8-2.4-2.9-2.5-0.9-0.2-1.6-0.3-2-0.3v8.2h-1.3c-1.9 0-2.8-1.1-2.8-2.7v-17.2c0.8-0.4 3.7-0.8 5.2-0.8h2.3c4.1 0 6.7 2.5 6.7 5.9 0 2.8-1.8 5.1-4.2 5.5 1.1 0.4 2.1 1.7 2.6 2.9l1.6 3.8c0.5 1.2 1 1.7 1.3 2.1-0.5 0.5-0.9 0.7-2 0.7zm-7.6-17.3c-0.4 0-1.4 0.1-1.8 0.2v5.4c0.9 0.2 1.8 0.2 2.9 0.2 1.7 0 3.1-1 3.1-2.8 0-2.5-1.3-3-3.1-3z"/>
        <circle class="a" cx="151.5" cy="50.5" r="2.6"/>
        <path class="b"
              d="m169.5 53.5c-4.1 0-6.3-1.6-6.3-4.1v-1.8h0.1c1.4 1.2 3.3 2.2 5.7 2.2 3.1 0 4.1-1 4.1-2.7 0-1.4-0.5-2-4.9-2.9-3.4-0.8-5.4-2.5-5.4-5.3 0-3.4 2.9-6.6 7.7-6.6 4.8 0 6.2 2 6.2 3.7v1.9h-0.2c-1.2-1.4-3.1-2-5.3-2-3.2 0-4.3 1-4.3 2.6 0 1.2 0.9 2 4.8 2.8 3.7 0.8 5.5 2.7 5.5 5.5 0 4-2.7 6.7-7.7 6.7z"/>
        <path class="b"
              d="m194.2 50.7c0 1.7-0.8 2.6-4.4 2.6h-2.2c-5 0-7.7-2.8-7.7-8v-3.8c0-2 0.2-4.2 0.4-5.8 0.4-2.5 1.5-3.1 3.2-3.1h10.7v1.4c0 1.4-0.9 2.1-2.8 2.1h-7c-0.2 1.5-0.3 3.5-0.3 4.8h7.9v1.5c0 1.3-0.8 1.9-2.5 1.9h-5.4v1.2c0 3.5 1.2 4.2 4.3 4.2h1.4c1.5 0 3-0.1 4.5-0.4z"/>
        <path fill-rule="evenodd" class="b"
              d="m210 53.3c-1.3 0-2.5-0.5-3-1.9l-1.6-3.7c-0.9-2.2-1.7-2.4-2.8-2.5-0.9-0.2-1.6-0.3-2.1-0.3v8.2h-1.3c-1.8 0-2.8-1.1-2.8-2.7v-17.2c0.9-0.4 3.8-0.8 5.3-0.8h2.3c4.1 0 6.7 2.5 6.7 5.9 0 2.8-1.8 5.1-4.2 5.5 1.1 0.4 2 1.7 2.5 2.9l1.7 3.8c0.5 1.2 1 1.7 1.2 2.1-0.4 0.5-0.8 0.7-1.9 0.7zm-7.6-17.3c-0.4 0-1.4 0.1-1.9 0.2v5.4c0.9 0.2 1.9 0.2 3 0.2 1.6 0 3.1-1 3.1-2.8 0-2.5-1.3-3-3.1-3z"/>
        <path class="b"
              d="m222.6 53.3h-0.4c-1.2 0-2.2-0.5-3-1.7-3.2-5.2-5.9-12.5-6.8-19h2.4c1.5 0 2.4 1 2.6 2.3 0.6 3.7 1.7 7.5 4.1 12.6 2.2-4.7 3.8-9.7 4.6-14.9h2.2c1 0 1.8 0.6 1.8 1.8 0 1.1-1.5 6-2.8 9.3-1.2 3-2.7 6.3-4.7 9.6z"/>
        <path class="b" d="m234.7 53.1c-1.2 0-2.5-0.9-2.5-2.7v-17.8h1.9c1 0 2.2 0.9 2.2 2.2v18.3z"/>
        <path class="b"
              d="m255.3 38.1c-1.3-1.7-3.8-2.2-5.6-2.2-3.7 0-6.4 2.6-6.4 6.6 0 4.8 2.7 7.2 6.5 7.2 2.1 0 4.4-0.8 5.5-1.9h0.1v1.5c0 2.8-3.3 4-6.1 4-5.4 0-10.1-4.1-10.1-10.2 0-6.3 4.2-10.8 10.5-10.8 3.3 0 5.8 1.4 5.8 4.2v1.6z"/>
        <path class="b"
              d="m271.5 50.7c0 1.7-0.9 2.6-4.5 2.6h-2.2c-5 0-7.6-2.8-7.6-8v-3.8c0-2 0.2-4.2 0.4-5.8 0.3-2.5 1.5-3.1 3.1-3.1h10.8v1.4c0 1.4-0.9 2.1-2.8 2.1h-7c-0.2 1.5-0.3 3.5-0.3 4.8h7.9v1.5c0 1.3-0.9 1.9-2.5 1.9h-5.4v1.2c0 3.5 1.1 4.2 4.3 4.2h1.3c1.5 0 3-0.1 4.5-0.4z"/>
        <path class="a"
              d="m29.7 26.3c0.4-1.4 0-2.7-0.3-4.1-0.8-4.7-1.9-9.5-2.1-14.3-0.3-4.8-0.2-4.9 5.2-6.4 7-1.8 14-1.5 20.9 0.8 1.8 0.6 2.5 1.6 2.6 3.2 0.1 4-0.8 7.9-1.4 11.9-0.4 2.9-1.3 5.8-1.3 8.9 0.8 0 0.7-0.4 0.9-0.8 2.1-5.4 3.6-11 4.8-16.6 0.3-1.3 0.7-1.5 2-0.7 7.5 5.1 12.2 11.5 13.4 19.7 0.2 0.8 0.2 1.7 0.9 2.3 3.1 2.9 2.3 6.5 2.3 9.8 0 0.9-0.8 1-1.7 1-1.4 0-5.9 0-7.3 0-2 0-4-0.3-5.2 1.5-0.4 0.6-1.4 0.5-2.2 0.5-15 0-24.1 0-39.1 0-0.9 0-1.9 0.1-2.4-0.6-1.1-1.6-2.8-1.4-4.6-1.4-1.6 0-6.1 0-7.7 0-1.2 0-1.9-0.4-1.9-1.4 0-2.3-0.7-4.9 0.7-6.8 3-4 2.7-8.7 5.1-12.8 2.6-4.6 6-8.5 10.7-11.7 1.2-0.8 1.8-1 2.2 0.7 1.2 5.6 2.7 11.1 4.8 16.5 0.1 0.3 0 0.7 0.7 0.8z"/>
        <path class="a"
              d="m39.9 62.9q0.1 0.9 0.4 1.4-2.4-0.2-4.7-0.9c0.4-0.6 0.8-1.6 1.1-2.6l2.8-9.8c0.2-0.7 0.4-1.7 0.6-2.2 0.2 1.6-0.2 12.1-0.2 14.1z"/>
        <path class="a"
              d="m55.4 45.3h8.9c-0.8 5.2-3.4 9.7-7 13q-0.1-0.1-0.1-0.1l-1.2-2.9c-0.4-1-1.1-1.9-2-2.3 1.8-0.2 3.2-2 3.2-4.1 0-1.5-0.6-2.8-1.8-3.6z"/>
        <path class="a"
              d="m31.8 47.1c-0.2-0.6-0.5-1.3-1-1.8h7.6c-0.4 1.1-0.8 2.5-1.3 3.8l-1.8 5.6c-0.1 0.5-0.3 1-0.4 1.6-0.1-0.7-0.4-1.7-0.9-3z"/>
        <path class="a" d="m32.6 61.1q0.2 0.8 0.5 1.4-2.3-1-4.4-2.5c0-3 0.2-9 0.6-11.2 0.3 0.5 0.4 1.8 0.7 2.6z"/>
        <path class="a" d="m46.3 62.3q0 0.9 0.5 1.5-1.8 0.4-3.6 0.5c0-3.9 0.1-14.2-0.1-16.6q-0.1-1.5-0.4-2.4h3.6z"/>
        <path class="a"
              d="m54 49.4c0 1.4-1 2.1-2.3 2.1-0.9 0-1.6 0-2.3-0.1v-4.2c0.4-0.1 1.1-0.1 1.4-0.1h0.9c1.4 0 2.3 0.4 2.3 2.3z"/>
        <path class="a" d="m26.7 45.3c-0.5 3.1-1 8.6-1.1 12-3.1-3.2-5.3-7.3-6.1-12z"/>
        <path class="a"
              d="m55.2 60c-1.8 1.2-3.7 2.3-5.8 3v-9.1c0.4 0 0.9 0.1 1.6 0.2 0.8 0.1 1.5 0.3 2.2 2l1.2 2.8q0.3 0.7 0.8 1.1z"/>
        <path class="b"
              d="m13.5 45.2c1.6 6.7 5.2 12.7 10.3 17.1 2.5 2.2 5.4 4 8.4 5.1q0.6 0.2 1.2 0.5l1.2 0.3c0.8 0.3 1.6 0.4 2.4 0.5 0.4 0.1 0.8 0.2 1.2 0.2q0.7 0.1 1.3 0.2c0.8 0 1.6 0.1 2.5 0.1 3.3 0 6.6-0.6 9.7-1.7 1.5-0.6 3-1.4 4.4-2.2 0.7-0.5 1.4-0.9 2.1-1.5 0.3-0.2 0.7-0.4 1-0.7l0.9-0.8c0.4-0.3 0.7-0.6 1-0.9 0.3-0.3 0.6-0.5 0.9-0.8 0.6-0.6 1.2-1.2 1.7-1.9q1.7-1.9 2.9-4.1c0.9-1.4 1.6-3 2.3-4.5q0.9-2.4 1.5-4.9-0.3 2.5-1 5-0.7 2.5-1.9 4.9-1.2 2.3-2.8 4.4c-0.5 0.8-1.1 1.4-1.7 2.1-0.3 0.3-0.6 0.6-0.9 0.9-0.3 0.3-0.6 0.6-0.9 0.9q-1.9 1.9-4.1 3.3c-1.5 1-3.1 1.8-4.7 2.5-3.3 1.3-6.9 2-10.4 1.9-0.9 0-1.8 0-2.7-0.1q-0.7-0.1-1.3-0.2c-0.4 0-0.9-0.1-1.3-0.2-0.9-0.1-1.8-0.3-2.6-0.6l-1.3-0.3c-0.4-0.2-0.8-0.4-1.2-0.5-0.4-0.2-0.9-0.4-1.3-0.6l-1.1-0.6-0.6-0.3q-0.3-0.1-0.6-0.3l-1.1-0.7c-0.4-0.2-0.8-0.5-1.1-0.7l-1.1-0.8q-1-0.9-2-1.8c-5.1-4.8-8.5-11.4-9.2-18.2z"/>
        <path class="a"
              d="m76.7 44.2c0 0.5-0.1 0.9-0.1 1.4-0.1 0.4-0.1 0.9 0 1.3 0.1 0.4 0.4 0.8 0.8 1 0.3 0.2 0.8 0.4 1.2 0.5l2.5 1c0.4 0.2 0.8 0.3 1.2 0.6 0.4 0.3 0.7 0.8 0.8 1.3 0 0.5-0.1 1-0.2 1.4l-0.5 1.3q-0.4 1.3-0.8 2.6-0.5 1.2-1 2.5c-0.1 0.5-0.5 0.9-1 1.2-0.5 0.2-1.1 0.2-1.6 0.1q-0.2-0.1-0.3-0.2l-0.4-0.1-0.6-0.2-1.2-0.5c-0.9-0.3-1.7-0.8-2.4-0.7q-0.4 0.1-0.8 0.6c-0.2 0.3-0.4 0.7-0.7 1.1q-0.7 1.2-1.5 2.3-0.7 1.1-1.6 2.2-0.5 0.5-1 1c-0.2 0.3-0.5 0.6-0.6 0.9-0.1 0.3-0.1 0.6 0 0.9 0.1 0.4 0.3 0.7 0.5 1.1l1.5 2.3c0.2 0.4 0.4 0.7 0.7 1.1 0.2 0.5 0.4 1 0.4 1.6 0 0.3-0.1 0.7-0.2 0.9q-0.2 0.5-0.5 0.8c-0.4 0.4-0.8 0.6-1.1 0.9q-2.2 1.6-4.5 3.1l-0.3 0.1q-0.1 0.1-0.3 0.3-0.4 0.2-0.9 0.3c-0.3 0-0.7-0.1-1-0.2q-0.4-0.2-0.8-0.5-0.3-0.3-0.5-0.6c-0.1-0.2-0.2-0.4-0.4-0.6l-0.7-1.1-0.7-1.2-0.4-0.6-0.2-0.2q-0.1-0.2-0.1-0.3-0.3-0.4-0.7-0.4c-0.2-0.1-0.5 0-0.8 0.1q-2.5 1.2-5.2 1.9-1.3 0.3-2.7 0.6-0.7 0.1-1.4 0.2l-0.6 0.1q-0.3 0-0.5 0.1-0.3 0.2-0.5 0.6-0.1 0.2-0.1 0.4c-0.1 0.1-0.1 0.2-0.1 0.3v0.3l-0.3 2.7-0.1 1.3c-0.1 0.5-0.1 1-0.4 1.6-0.1 0.3-0.3 0.6-0.6 0.8-0.3 0.2-0.6 0.4-0.9 0.4q-0.5 0.1-0.9 0.1l-0.7-0.1q-2.7-0.2-5.4-0.6l-0.7-0.1h-0.2-0.2q-0.2-0.1-0.5-0.2c-0.6-0.3-1-0.9-1.2-1.5q-0.1-0.5-0.1-0.9c0-0.2 0-0.3 0-0.4v-0.3q0.1-0.7 0.2-1.4 0-0.7 0.1-1.4c0.1-0.4 0.2-0.8 0.2-1.2 0-0.4 0-0.8-0.1-1q-0.1-0.2-0.2-0.3-0.2-0.2-0.4-0.3-0.5-0.3-1.1-0.5-0.6-0.2-1.3-0.4-1.3-0.5-2.5-1.1-0.6-0.3-1.2-0.6l-1.2-0.7c-0.4-0.1-0.7-0.3-1-0.3-0.2 0-0.4 0.1-0.7 0.3-0.3 0.2-0.5 0.6-0.8 0.9l-0.9 1-0.9 1.1-0.4 0.5-0.2 0.3q-0.2 0.1-0.3 0.3c-0.4 0.3-1 0.7-1.7 0.7-0.6 0-1.2-0.3-1.6-0.7l-0.2-0.1-0.1-0.1-0.3-0.3-0.4-0.4-1-1-2-1.8-0.9-1c-0.4-0.3-0.8-0.8-0.9-1.4-0.1-0.3-0.1-0.7 0-1q0.1-0.4 0.4-0.8c0.1-0.2 0.3-0.4 0.4-0.6l0.5-0.5 1.7-2c0.6-0.7 1-1.3 0.9-1.9-0.1-0.3-0.2-0.7-0.5-1q-0.4-0.6-0.7-1.1-1.6-2.3-2.8-4.8l-0.3-0.6-0.1-0.3q-0.1-0.1-0.1-0.3c-0.2-0.3-0.4-0.6-0.7-0.7-0.3-0.2-0.7-0.2-1.1-0.1l-1.3 0.2-2.6 0.6c-0.4 0.1-1 0.2-1.5 0.1-0.5-0.1-1-0.4-1.3-0.8q-0.2-0.4-0.3-0.7c0-0.3-0.1-0.5-0.1-0.7l-0.3-1.3-0.5-2.7-0.3-1.3c0-0.4-0.2-0.9-0.2-1.3 0-0.5 0.1-1 0.4-1.4 0.3-0.4 0.8-0.6 1.2-0.7 0.9-0.3 1.8-0.4 2.6-0.6 0.5-0.1 0.9-0.2 1.4-0.3 0.4-0.1 0.8-0.3 1.1-0.6-0.3 0.3-0.7 0.5-1.1 0.7-0.5 0.1-0.9 0.2-1.3 0.3-0.9 0.2-1.8 0.4-2.6 0.7-0.4 0.1-0.8 0.3-1.1 0.7-0.2 0.3-0.3 0.7-0.3 1.1 0.1 0.4 0.2 0.9 0.3 1.3l0.3 1.3 0.6 2.7 0.3 1.3c0.1 0.4 0.2 0.8 0.4 1.1q0.4 0.5 0.9 0.6c0.4 0 0.8 0 1.2-0.2l2.6-0.6c0.5-0.1 0.9-0.2 1.4-0.3 0.4-0.1 1-0.2 1.5 0.1 0.6 0.2 0.9 0.7 1.2 1.1q0 0.2 0.1 0.4l0.2 0.3 0.2 0.5q1.3 2.4 2.8 4.6 0.4 0.5 0.8 1.1c0.3 0.4 0.6 0.8 0.7 1.4q0.1 0.4 0 0.8-0.1 0.5-0.2 0.8c-0.3 0.5-0.6 0.9-0.9 1.2l-1.7 2.1-0.5 0.5q-0.2 0.2-0.3 0.5-0.3 0.4-0.2 0.8 0.1 0.4 0.6 0.8l0.9 0.9 2 1.9 1 0.9 0.5 0.4 0.2 0.3 0.1 0.1 0.1 0.1c0.6 0.4 1 0.4 1.5-0.1q0.1 0 0.2-0.1l0.2-0.3 0.5-0.5 0.8-1.1 0.8-1c0.3-0.3 0.6-0.7 1-1.1q0.3-0.3 0.8-0.5c0.3-0.1 0.6-0.2 1-0.1 0.6 0 1.1 0.2 1.5 0.4l1.2 0.6q0.6 0.3 1.2 0.6 1.2 0.6 2.5 1.1 0.6 0.2 1.2 0.4c0.4 0.1 0.9 0.3 1.4 0.6q0.3 0.2 0.7 0.5 0.3 0.3 0.5 0.8c0.2 0.6 0.2 1.2 0.2 1.7 0 0.4-0.1 0.9-0.1 1.4q-0.1 0.6-0.2 1.3-0.1 0.6-0.1 1.3v0.3c0 0.1 0 0.2 0 0.3q0 0.3 0 0.5 0.1 0.3 0.4 0.5 0.1 0 0.2 0l0.1 0.1h0.1l0.7 0.1q2.7 0.3 5.3 0.6h0.7q0.2 0 0.4 0c0.3-0.1 0.4-0.1 0.5-0.4q0.1-0.2 0.1-0.4c0.1-0.2 0.1-0.4 0.1-0.6l0.2-1.4 0.2-2.7c0.1-0.4 0.1-1 0.4-1.5 0.2-0.6 0.7-1.1 1.3-1.3 0.3-0.1 0.6-0.2 0.9-0.2l0.6-0.1q0.7-0.1 1.3-0.2 1.3-0.3 2.6-0.6 2.6-0.7 5-1.7c0.4-0.2 1.1-0.4 1.7-0.3q0.5 0.1 0.9 0.4 0.4 0.3 0.6 0.6 0.2 0.2 0.3 0.4l0.2 0.3 0.3 0.5 0.7 1.2 0.7 1.1c0.1 0.2 0.3 0.4 0.4 0.6q0.1 0.2 0.3 0.4 0.4 0.3 0.7 0.3 0.1-0.1 0.3-0.2 0.1 0 0.3-0.1l0.3-0.2q2.2-1.5 4.4-3c0.3-0.3 0.7-0.5 1-0.8q0.3-0.3 0.4-0.7c0-0.3-0.1-0.6-0.3-1-0.2-0.3-0.5-0.7-0.7-1.1l-1.4-2.3c-0.2-0.4-0.5-0.8-0.6-1.3-0.2-0.5-0.2-1.2 0-1.7 0.3-0.6 0.6-0.9 0.9-1.3q0.5-0.5 0.9-1 0.9-1 1.7-2 0.8-1.1 1.5-2.2c0.2-0.4 0.5-0.8 0.8-1.2q0.2-0.3 0.6-0.5 0.3-0.3 0.8-0.4c0.6 0 1.1 0.1 1.5 0.3 0.5 0.2 0.8 0.3 1.3 0.5l1.2 0.5 0.6 0.3 0.3 0.1q0.2 0.1 0.3 0.1c0.4 0.1 0.8 0.1 1.1 0 0.3-0.1 0.6-0.4 0.7-0.8q0.5-1.2 1-2.5 0.5-1.2 1-2.5l0.4-1.2c0.2-0.4 0.3-0.9 0.2-1.3 0-0.4-0.2-0.7-0.5-1-0.3-0.2-0.7-0.4-1.1-0.6l-2.5-1.1c-0.4-0.1-0.8-0.3-1.2-0.6-0.2-0.1-0.4-0.2-0.5-0.4q-0.3-0.3-0.3-0.7c-0.2-0.9 0.2-1.8 0.2-2.7z"/>
    </g>
</svg>