<svg xmlns:xlink="http://www.w3.org/1999/xlink" id="visual" viewBox="0 0 1000 540" width="1000" height="540"
     xmlns="http://www.w3.org/2000/svg" version="1.1">
    <rect x="0" y="0" width="1000" height="540" fill="#ffffff"></rect>
    <path d="M0 419L27.8 418.3C55.7 417.7 111.3 416.3 166.8 399.5C222.3 382.7 277.7 350.3 333.2 340.2C388.7 330 444.3 342 500 325C555.7 308 611.3 262 666.8 243.8C722.3 225.7 777.7 235.3 833.2 221.8C888.7 208.3 944.3 171.7 972.2 153.3L1000 135L1000 0L972.2 0C944.3 0 888.7 0 833.2 0C777.7 0 722.3 0 666.8 0C611.3 0 555.7 0 500 0C444.3 0 388.7 0 333.2 0C277.7 0 222.3 0 166.8 0C111.3 0 55.7 0 27.8 0L0 0Z"
          fill="#2c3181" stroke-linecap="round" stroke-linejoin="miter"></path>
</svg>