<svg version="1.2" xmlns="http://www.w3.org/2000/svg" viewBox="0 0 715 698" width="715" height="698"><defs><clipPath clipPathUnits="userSpaceOnUse" id="cp1"><path d="m-1096-382h1920v11023h-1920z"/></clipPath></defs><style>.a{opacity:.1}.b{fill:#ebceb1}.c{fill:#d1d9db}.d{fill:#333}.e{fill:#1a1a1a}.f{fill:#3c6794}.g{fill:#514943}.h{fill:#eacdb0}.i{fill:#d1b337}.j{fill:#f0c830}.k{fill:#c1b23f}.l{fill:#ada03b}.m{fill:#faeb7d}.n{fill:#659993}.o{fill:#fff}.p{fill:#ccc}.q{fill:#a63f65}.r{fill:#435b6e}.s{fill:#2e414c}.t{fill:#22323a}.u{opacity:.1;fill:#fff}.v{fill:#5c7789}.w{fill:#afbdc6}.x{fill:#c1d0db}.y{fill:#534741}</style><g clip-path="url(#cp1)"><path class="a" d="m392.6 636.7c12.2-1.3 24.3-2.7 36.5-4.1 40.2-4.7 80.4-7.6 120.6-10.4 28.6-2 57.4-3.1 85.9-0.1 24.6 2.5 54.3 7.6 73.2 26.7 10.7 10.6 6.1 24.1-9.5 33.2-16.5 9.6-37.5 9.9-55.8 11.2-171.8 12.7-342.7-3.9-514.5-3.2-24.4 0.1-49.1 1.7-73.4 2.8-14.7 0.6-33.9 3.4-48.4-0.6-9.2-2.6-8.5-11.4-1.5-16 12.7-8.4 31.9-9.3 46.4-10.3q56.8-3.7 113.6-8.2 113.6-9 226.9-21z"/><path class="b" d="m515.1 248.6l1.9-14.9 6.4 0.6 0.9 10.6 3.2-1.1-3.2 12.6-6.7 0.2z"/><path class="c" d="m514.2 315.4q-0.2-12.9-0.3-25.8-0.2-18-0.4-36l13.3-1.1q3.9 19.5 7.9 39.1c1 5 1 15.4 4 19.7 2.6 3.7 12.2 1.1 17.1 0.7q12.8-1 25.7-2c0.8-0.1 1.7-0.1 2.4 0.4 0.8 0.5 1.1 1.4 1.3 2.3 1.7 7.7 1.2 16.5-4 22.4-6.3 7.3-17.4 7.7-27 6.9-18.7-1.7-39.8-3.8-40-26.6z"/><path class="c" d="m610.3 316.1c7.9 6 11.2 16.8 13.2 26.7 8 40.9 3.9 83.1-0.3 124.5-0.5 4.7-1.6 6.7-6.1 4.7-28.1-12.5-55.7-28.7-86.3-30.6 7.7-26.1 8.5-53.6 13.7-80.2 1.5-7.7 3.4-15.5 6.7-22.6 4.3-9.3 11.2-19.4 18.8-26.3 7.2-6.6 18.6-3.7 27.3-1.5 3.5 0.9 7.2 1.8 10.4 3.6q1.4 0.8 2.6 1.7z"/><path class="b" d="m236.5 334.8l7.8 2.3 6.3-3.6 1.4 0.9-1.1 1.8 6-1.5 4.6 2.2 1.1 6.5-3.3 6-6.7 0.4-7.1-3.4-10.8-2.6z"/><path class="c" d="m239.5 349.7l-86.9-1.8-12.4-6.4c-12.9-9.9-30.2-17.8-30-36.3 0.1-6 4-17.2 11.6-17.2 4.6 0 11.2 5.9 15 8.3q8.4 5.1 16.7 10.2c2.4 1.4 5.6 4.4 8.3 5.1l78.3 19.2z"/><path class="b" d="m146.7 249.9c-0.6 10.3-6.4 20.4-14.4 24.9q-1.9 1.1-4 1.7-1 5.1-1.9 10.1-7.4-1.4-14.8-2.8 2.1-3.7 3.5-7.7c-2.5-1-4.8-2.4-6.8-4.4-1.5-1.5-2.8-3.3-3.7-5.4-1.3-3.2-1.5-7.1-1-10.8 1-8 5.3-15.8 11.5-19 9.6-4.8 20.3 2.5 30.3-0.8 0.8 4.6 1.5 9.4 1.3 14.2z"/><path class="d" d="m94.9 257q-0.7-1.1-1.2-2.2c-4.4-9.1-6.8-19.9-0.3-28.7 6.7-8.9 20.3-12.8 30.8-10.2 5.7 1.5 11.8 3.5 17.4 1.6 1.7-0.5 3.3-1.5 4.3-3 0.9-1.4 1.1-3.1 2-4.5 2.2-3.2 8-2.4 9.2 1.2 0.4 1.1 0.4 2.3 1 3.3 1.2 2.1 4.2 2.2 6.7 2.6 0.8 0.1 1.7 0.3 2.2 0.9 0.9 1.1 0 2.9-1.3 3.6-1.7 1-4.8 0.8-5.9 2.7-0.8 1.4 0.5 4.2 0.3 5.8-0.8 5.7-5.7 11-11 12.9-5 1.9-9.5-0.2-14.5-1.4-1.4-0.4-2.9-1.3-4.3-1.5-1.7-0.2-3.5 0.6-5.1 1-2.1 0.5-4.3 0.2-6.4 0-2.2-0.1-4.4-0.2-6.4 0.6-1.9 0.8-3.6 2.7-3.5 4.9 0.2 2.5 2.8 4.6 2.7 7.1 0 2.3-2 4-2.9 6-0.6 1.7-0.7 3.6-1.9 4.9-0.5 0.5-1.2 0.9-1.7 1.5-0.7 0.8-0.8 1.9-1.7 2.5-0.9 0.6-2.3 0.1-3-0.8-0.7-0.8-1-1.9-1.4-3-0.9-2.9-2.6-5.3-4.1-7.8z"/><path class="c" d="m135.3 289.3c5 12.1 8.9 24.5 11.9 37.2 3.4 14.5 5.4 29.2 7.4 43.9q4.1 29.9 8.3 59.8c-30.2-0.7-60.4 1.7-90.1 7.1-5.1-51.3 5.7-104 30.6-149.5 0.9-1.7 2-3.5 3.7-4.4 2-1.1 4.4-0.9 6.6-0.7 7.1 0.7 18.5-1 21.6 6.6z"/><path class="e" d="m178.2 663.3l5.8 5.4c3.8 3.5 2.9 9.8-1.8 11.9-2.7 1.2-6.6 1-12-2.7l-12.3-14 2-4.5 17.8-2.7z"/><path class="f" d="m166.1 425.5l28.7 117.2-8.4 114.7-28.3 2.5-6.6-103.5c0 0-62.1-113.4-58.5-115.8 3.5-2.5 73.1-15.1 73.1-15.1z"/><path class="e" d="m90.4 663.3l5.8 5.4c3.8 3.5 2.9 9.8-1.7 11.9-2.8 1.2-6.7 1-12.1-2.7l-12.3-14v-6.5l4.6-4.1 13.7 2.5z"/><path class="f" d="m146.5 432.9l-8.9 120.4-41.7 105.9-29.4-5.9 25.7-100.4c0 0-24.1-127-19.9-128.2 4.1-1.3 74.2 8.2 74.2 8.2z"/><path class="f" d="m70.1 428.2l11.1-26.9 38.7-12.8-7.4-49.1 38.7-6.2 6.7 69 9.5 28.3-93.4 17z"/><path class="f" d="m114.6 318c0.1-7.6-0.3-16.2-6.1-21.1-1.3-1.1-2.9-2-4.6-2-3.5 0.1-5.9 3.5-7.6 6.5-0.6-4.5-0.9-9.5 1.7-13.2 3.4-4.7 10.7-5.3 15.6-2.3 5 3 7.8 8.7 8.8 14.4 1.1 5.7 0.6 11.5 0.6 17.3 0 8.5 0.9 16.9 1.8 25.2-3.4-0.2-6.7 0.5-10 0.6-2-7.4-0.2-17.6-0.2-25.4z"/><path class="f" d="m140.7 310.2c-0.8-7.3-2.6-15.4-8.6-19.6-1.5-1-3.5-2.1-3.4-3.9 0.1-1.1 0.9-2 1.8-2.5 3.1-1.8 7.2-0.3 9.5 2.5 2.3 2.7 3.1 6.4 3.7 9.9 2.7 13.9 4.3 28 4.9 42.2 0.1 2.1-5.1 0.9-6 0-1.4-1.6-0.6-5.3-0.6-7.2-0.1-7.2-0.4-14.3-1.3-21.4z"/><path class="g" d="m602.8 633.9l1.3 3.5-1.7 22.1-8.7 0.8-2.7-14.9 1.2-7.8z"/><path class="g" d="m562.1 659.9l2 10.8-25.1 6-1.7-7.5 13.7-10.1z"/><path class="f" d="m526.4 452.1l41.6-4.7 8.2 16.8-11.2 84.9 1.1 112.3h-18.7l-23-96.8-0.4-103.2z"/><path class="f" d="m565.1 448.2h47.6l8.8 24.6-8.8 84.1-4.6 77-17.1 1.9-19.6-98.5z"/><path class="h" d="m596.9 305.9q-0.1 0.7-0.3 1.3c-0.5 1.9-1.7 4-3.6 4.2-0.9 0-1.7-0.3-2.6-0.6q-2.5-0.9-4.9-1.9c-0.4-0.1-0.7-0.3-0.9-0.6-0.1-0.3 0-0.6 0.1-0.9q0.8-2.2 1.6-4.3-0.1 0-0.1 0c-4.7-3.4-6.9-9.6-6.8-15.4 0.1-5.9 2.3-11.5 5.1-16.6 9.1-17.2 30.5-6.9 32.3 10 1.1 11-9 23.4-19.9 24.8z"/><path fill-rule="evenodd" class="i" d="m546.2 75.2c14.3 4.9 22 20.5 17.1 34.8-4.9 14.4-20.4 22-34.8 17.2-14.3-4.9-22-20.5-17.1-34.8 4.9-14.4 20.5-22 34.8-17.2zm-12 35.2c5.1 1.7 10.6-1 12.3-6.1 1.7-5-1-10.5-6-12.3-5.1-1.7-10.6 1-12.3 6.1-1.7 5 1 10.5 6 12.3z"/><path fill-rule="evenodd" class="j" d="m438.7 80.2l7.7-22.6 14.7 2.8c2.8-5.1 6-9.8 9.6-14.2l-8.3-12.5 18-15.8 11.3 9.9c4.9-3 10-5.5 15.4-7.6l-0.9-15 23.4-4.6 4.9 14.2c5.7-0.2 11.4 0.2 17.1 1.1l6.7-13.4 22.7 7.7-2.9 14.8c5.1 2.7 9.9 5.9 14.2 9.5l12.6-8.3 15.7 18-9.8 11.4c3 4.8 5.5 10 7.5 15.3l15-0.9 4.7 23.5-14.2 4.9c0.1 5.6-0.2 11.3-1.2 17.1l13.4 6.7-7.7 22.6-14.7-2.8c-2.7 5.1-5.9 9.8-9.5 14.2l8.2 12.5-18 15.8-11.3-9.9c-4.9 3-10 5.5-15.4 7.5l0.9 15.1-23.4 4.6-4.9-14.2c-5.7 0.2-11.4-0.2-17.1-1.2l-6.7 13.5-22.7-7.7 2.9-14.8c-5.1-2.7-9.9-5.9-14.2-9.5l-12.6 8.3-15.7-18 9.9-11.4c-3.1-4.8-5.6-10-7.6-15.3l-15 0.9-4.6-23.5 14.2-4.9c-0.2-5.6 0.1-11.3 1.1-17.1zm125.6-40.1l-15.2 44.6c5.6 4 8.8 10.5 8.5 17.3l44.7 15.2c7.8-31.4-8.3-64.1-38-77.1zm-42.9 126c31.5 7.8 64.1-8.2 77.2-37.9l-44.7-15.3c-3.9 5.6-10.5 8.8-17.3 8.5zm25.2-61.7c1.7-5.1-1-10.6-6.1-12.3-5-1.7-10.5 1-12.2 6.1-1.8 5 0.9 10.5 6 12.2 5.1 1.8 10.6-0.9 12.3-6zm-36.1 58l15.2-44.6c-5.6-4-8.8-10.5-8.5-17.3l-44.7-15.2c-7.8 31.4 8.3 64.1 38 77.1zm10.4-72.8c4-5.6 10.5-8.8 17.3-8.5l15.2-44.7c-31.5-7.8-64.1 8.3-77.1 37.9z"/><path fill-rule="evenodd" class="k" d="m463.5 76c13.9-40.7 58.3-62.5 99-48.7 40.7 13.9 62.6 58.3 48.7 99.1-13.9 40.7-58.3 62.5-99 48.7-40.7-13.9-62.6-58.3-48.7-99.1zm3.1 1.1c-13.3 39 7.6 81.6 46.7 94.8 39 13.3 81.5-7.6 94.8-46.6 13.3-39-7.6-81.6-46.6-94.8-39.1-13.3-81.6 7.6-94.9 46.6z"/><path class="i" d="m471.1 92.3c-3.9 29.2 11.9 58 39.3 70.1l5.4-15.8q4.7 4.1 9.5 7.8l-4 11.7c7.7 1.9 15.3 2.3 22.8 1.6 8.8 5.6 17.2 10.2 24.8 13.9q-0.6 0.3-1.3 0.5l0.9 15.1-23.4 4.6-4.9-14.2c-5.7 0.2-11.4-0.2-17.1-1.2l-6.7 13.5-22.7-7.7 2.9-14.8c-5.1-2.7-9.9-5.9-14.2-9.5l-12.6 8.3-15.7-18 9.9-11.4c-3.1-4.8-5.6-10-7.6-15.3l-15 0.9-4.6-23.5 14.2-4.9c-0.2-5.6 0.1-11.3 1.1-17.1l-13.4-6.7 7.7-22.6 10 1.9c4.1 11.9 9.1 22.8 14.7 32.8z"/><path class="l" d="m465.3 81.3c-10.5 37.8 10.3 77.8 48 90.6 13.7 4.7 27.9 5.2 41.1 2q2.1 1.2 4.2 2.4c-14.8 4.1-30.9 4.1-46.4-1.2-40.5-13.8-62.3-57.8-48.9-98.3q1 2.2 2 4.5z"/><path class="m" d="m559.9 5.3l18.1 6.1c0 0-2.8 12-2.9 11.8-3.3-11.5-15.2-17.9-15.2-17.9z"/><path fill-rule="evenodd" class="n" d="m310.9 268l-9.8-6c1.6-7.7 4-15.2 7.1-22.5l11.4 0.7c13.1 0.8 21.8-13.1 15.6-24.5l-5.5-10.1c5.3-5.9 11.1-11.2 17.3-15.9l9.7 6.3c10.8 7.2 25.4-0.4 25.7-13.5l0.3-11.4q5.6-1.8 11.4-3.1 5.8-1.3 11.6-2.1l5.1 10.3c5.9 11.7 22.3 12.3 29.1 1.2l6-9.8c7.6 1.6 15.1 4 22.4 7.1l-0.7 11.4c-0.7 13.1 13.1 21.8 24.6 15.6l10.1-5.5c5.9 5.3 11.2 11.1 15.9 17.3l-6.3 9.7c-7.2 10.8 0.4 25.4 13.4 25.7l11.5 0.3q1.8 5.6 3.1 11.4 1.3 5.8 2 11.6l-10.2 5.1c-11.7 5.9-12.4 22.3-1.3 29.1l9.9 6c-1.7 7.6-4 15.1-7.1 22.4l-11.5-0.7c-13-0.7-21.8 13.1-15.6 24.6l5.5 10.1c-5.2 5.9-11 11.2-17.3 15.9l-9.6-6.3c-10.9-7.2-25.4 0.4-25.8 13.4l-0.2 11.5q-5.6 1.8-11.4 3.1-5.8 1.3-11.6 2l-5.2-10.2c-5.8-11.7-22.2-12.4-29-1.3l-6 9.9c-7.7-1.7-15.2-4-22.5-7.1l0.7-11.5c0.8-13-13.1-21.8-24.5-15.6l-10.1 5.5c-5.9-5.2-11.2-11-15.9-17.3l6.3-9.6c7.2-10.9-0.4-25.4-13.5-25.7l-11.4-0.3q-1.8-5.6-3.1-11.4-1.3-5.8-2.1-11.6l10.3-5.2c11.6-5.8 12.3-22.2 1.2-29zm91.3-32.8c-1-4.3-5.8-6.7-9.8-4.6-16 7.9-27.7 22.3-32.5 39l48.4 7.3q0.7-0.8 1.5-1.5 0.6-0.6 1.2-1zm60.4 4.6c-11-9.8-25.3-15.6-40.4-16-4.5-0.1-7.9 4.1-7 8.5l8.8 39.1q2.2 0.5 4.3 1.6l33.5-22.3c3.8-2.5 4.2-8 0.8-10.9zm-51.6 46.6c-0.4 5.3 3.6 10 8.9 10.4 5.3 0.4 10-3.6 10.4-8.9 0.4-5.4-3.6-10-9-10.4-5.3-0.4-9.9 3.6-10.3 8.9zm57.1 28.2c3.6 3 8.9 1.6 10.7-2.7 5.1-11.7 6.6-25.1 3.6-38.6q-1-4.4-2.5-8.5c-1.6-4.1-6.6-5.7-10.3-3.2l-33.3 22.2c0.4 1.6 0.5 3.3 0.3 5zm-62.3 34.1c9.1 2.2 18.9 2.4 28.6 0.2 9.9-2.2 18.7-6.6 26-12.5 3.4-2.8 3.4-8 0-10.7l-30.8-25.2c-3.2 2.1-7 3-10.6 2.6l-17.7 35.8c-2 4 0.2 8.7 4.5 9.8zm-48.3-57.5q0.3 4.8 1.4 9.7c3 13.6 10.2 25.2 19.9 33.7 3.4 3 8.7 1.9 10.7-2.1l17.9-36.2c-1.3-2-2.2-4.2-2.6-6.4l-39.4-6c-4.4-0.6-8.2 2.9-7.9 7.3z"/><g style="opacity:.1"><path fill-rule="evenodd" d="m340.1 281.1c3.3-44.4 42.2-77.8 86.6-74.5 44.5 3.3 77.9 42.2 74.6 86.6-3.4 44.5-42.2 77.9-86.7 74.6-44.4-3.4-77.8-42.2-74.5-86.7zm15.9 1.2c-2.7 35.7 24.2 66.9 59.8 69.6 35.7 2.6 66.9-24.2 69.6-59.9 2.6-35.6-24.2-66.8-59.9-69.5-35.6-2.7-66.8 24.2-69.5 59.8z"/></g><path fill-rule="evenodd" class="j" d="m427.2 116.4l-16.2 0.9-7 14.5 9.3 13.2c-3.8 5-8.2 9.5-13 13.4l-13.6-8.7-14.2 7.5-0.3 16.2c-5.9 1.8-12 2.9-18.3 3.3l-5.9-15.1-15.9-2.2-9.7 12.9c-6-2.1-11.6-4.9-16.8-8.2l4.2-15.7-11.6-11.1-15.5 4.7c-3.5-5.1-6.5-10.7-8.8-16.5l12.6-10.2-2.8-15.8-15.3-5.3q0.2-4.5 0.7-8.9 0.7-5 2-9.6l16.1-0.9 7.1-14.4-9.2-13.3c3.8-5 8.1-9.4 12.9-13.4l13.6 8.8 14.2-7.5 0.4-16.2c5.9-1.7 12-2.8 18.4-3.2l5.8 15.2 15.8 2.3 9.9-12.9c5.7 2 11.2 4.7 16.2 7.9l-4.1 15.7 11.6 11.1 15.5-4.8c3.5 5.1 6.5 10.7 8.8 16.5l-12.5 10.2 2.8 15.8 15.3 5.3q-0.1 4.6-0.7 9.2c-0.4 3.1-1.1 6.3-1.8 9.3zm-47.4-39.3c-10.5-17-32.8-22.2-49.7-11.7-17 10.5-22.3 32.8-11.8 49.8 10.5 17 32.8 22.2 49.8 11.7 17-10.5 22.3-32.7 11.7-49.8z"/><path fill-rule="evenodd" class="o" d="m376.9 141.2c-24.9 15.3-57.5 7.6-72.8-17.2-15.4-24.9-7.7-57.5 17.1-72.9 24.9-15.3 57.5-7.6 72.9 17.3 15.3 24.8 7.6 57.4-17.2 72.8zm12.8-70.1c-13.9-22.4-43.3-29.4-65.8-15.6-22.4 13.9-29.3 43.3-15.4 65.8 13.8 22.4 43.2 29.3 65.7 15.5 22.4-13.9 29.3-43.3 15.5-65.7z"/><path class="i" d="m425.2 96.6l4.3 1.5 0.2-0.2q-0.1 4.6-0.7 9.2c-0.4 3.1-1.1 6.3-1.8 9.3l-0.2-0.2-16 1.1-7 14.5 9 13.2h0.3c-3.8 5-8.2 9.5-13 13.4l0.1-0.2-13.7-8.5-14.2 7.5-0.5 16.1 0.2 0.1c-5.9 1.8-12 2.9-18.3 3.3l0.2-0.2-6.1-14.9-15.9-2.2-9.8 12.6 0.1 0.3c-6-2.1-11.6-4.9-16.8-8.2l0.3-0.1 3.9-15.6-0.5-0.4c34.4-2.3 79.1-13.8 115.9-51.4z"/><path class="p" d="m330 145.5q5.6-0.9 11.3-2.2c11 1.8 22.7-0.2 32.9-6.5 4.6-2.9 8.6-6.5 11.9-10.5q5.1-2.8 10.1-6c-4.3 8.3-10.8 15.6-19.3 20.9-14.6 9-32 10.1-46.9 4.3z"/><path class="q" d="m327 31.7l0.6-13.1c0 0 8.3-2.7 14.2-2.7 0 0-9.9 1.9-14.8 15.8z"/><path class="a" d="m392.1 671c-3.4 1.2-6.9 2.1-10.5 2.6-6.9 1.2-14.1 1.4-21.1 1.5-4.3 0.1-19.9-0.8-22.3-5.2-2.7-5 26.4-5.8 29.1-5.8q8.7-0.3 17.4-0.2c3.2 0 9.6-0.8 12.4 0.8 1 0.5 1.8 1.5 1.5 2.5-0.2 0.8-1.5 1.7-2.9 2.4-1.4 0.6-2.8 1.1-3.6 1.4z"/><circle class="r" cx="350.7" cy="651" r="23.5"/><path class="s" d="m341.7 664.9l-7.6-14.8 9-14 16.7 0.9 7.5 14.8-9 14z"/><circle class="t" cx="350.7" cy="651" r="8.6"/><path class="s" d="m386.8 577.3l24.8-47.3 20.6 12.7-30.6 43.7-8.1-1.3c-0.9-0.1-1.6-0.6-2.1-1.3z"/><path class="r" d="m391.3 565.3q10.6 3.8 21.8 7.2c3.1 1 1.2 5.8-1.8 4.8q-10.8-3.5-21-7.1c-2.8-1.1-1.9-5.9 1-4.9z"/><path class="r" d="m387.1 573.7q9.8 3.6 20.2 7c2.9 1 1.3 5.2-1.5 4.2q-10.1-3.4-19.6-6.9c-2.6-1-1.8-5.3 0.9-4.3z"/><path class="r" d="m401.1 546q12.3 3.6 25.5 6.9c3.8 0.9 0.7 7.6-2.9 6.6q-12.6-3.2-24.4-6.8c-3.2-1-1.6-7.7 1.8-6.7z"/><path class="r" d="m396.2 555.8q11.4 3.8 23.5 7.4c3.5 1 1.2 6.4-2.1 5.4q-11.7-3.5-22.7-7.3c-3-1.1-1.9-6.6 1.3-5.5z"/><path class="u" d="m400.3 586.2l22.9-40.2 3.6 3.7-25.4 36.5z"/><path class="v" d="m416.9 545.7c-17.4-10.7-17.7-27.1-7.1-33.1 7.1-3.9 17.7-2.3 25.7 2.6 8 4.9 14.3 13.6 13.9 21.7-0.4 12.2-15.1 19.4-32.5 8.8z"/><path class="r" d="m420 540.5c-17.4-10.6-18.7-25.4-8.8-30.1 6.6-3.1 16.9-1 24.9 3.8 8 4.9 14.5 13.2 14.7 20.4 0.3 11-13.4 16.6-30.8 5.9z"/><path class="s" d="m423.1 512.4l12.4 4.1 8.7 9.6-2.5 9.9-18.3-3.2-9.1-14.8z"/><path class="t" d="m428.1 527.3c-4.6-2.8-6.4-7.1-4.3-9.2 1.8-1.9 5.9-1.4 9.5 0.8 3.5 2.1 5.8 5.6 5 8-0.9 2.9-5.6 3.3-10.2 0.4z"/><path class="s" d="m478 401.2l-29.1-50 18.3-10.5 29.2 49.9-4.5 8.9c-0.7 1.5-2.3 2.4-3.9 2.3z"/><path class="r" d="m454.7 365.3q9.1-8.5 17.8-17.5c2.4-2.5 6.7 2.1 4.3 4.6q-8.8 9-17.8 17.5c-2.6 2.4-6.8-2.2-4.3-4.6z"/><path class="r" d="m461 376.3q9-8.6 17.8-17.5c2.4-2.5 6.7 2.1 4.3 4.6q-8.8 8.9-17.8 17.5c-2.6 2.4-6.9-2.2-4.3-4.6z"/><path class="r" d="m467.3 387.3q9-8.6 17.8-17.6c2.4-2.5 6.7 2.1 4.2 4.6q-8.7 9-17.8 17.5c-2.5 2.4-6.8-2.2-4.2-4.5z"/><path class="r" d="m473.5 398.2q9.1-8.6 17.8-17.5c2.5-2.5 6.8 2.1 4.3 4.6q-8.7 8.9-17.8 17.5c-2.5 2.4-6.8-2.2-4.3-4.6z"/><path class="u" d="m492.9 397.6l-1.4 2.9-30.4-48.8 7.6-5.5z"/><path class="v" d="m463.2 352.3c-18.5 11.7-33.4 5.9-33.4-5.9 0-7.8 6.9-16.7 15.4-22.1 8.5-5.4 19.6-7.8 26.8-4.5 10.8 4.9 9.8 20.8-8.8 32.5z"/><path class="r" d="m460.2 347.6c-18.5 11.7-32.5 7.4-31.7-3.3 0.5-7 7.7-15.5 16.2-20.9 8.4-5.3 19.3-8.2 25.9-5.7 10.1 3.8 8.1 18.2-10.4 29.9z"/><path class="s" d="m437.3 336.1l10.1-9.7 13.1-4.3 7.7 6-12.3 15.2-18 2.7z"/><path class="t" d="m453.4 337.1c-5 3.1-9.8 3.1-10.6 0.4-0.7-2.3 1.8-5.8 5.6-8.2 3.7-2.4 8-3.1 9.8-1.5 2.1 1.9 0.1 6.2-4.8 9.3z"/><path class="s" d="m373.2 322.9c-4.2 1.4-8.7-0.8-10.1-5l-8.3-24.4c-1.4-4.2 0.8-8.7 5-10.1 4.2-1.4 8.7 0.8 10.1 5l8.3 24.4c1.4 4.2-0.9 8.7-5 10.1z"/><path class="r" d="m359.6 310.5q10.1-0.2 20.1-0.2c1.9 0 2.1 3 0.2 3q-10.1 0-20.2 0.2c-1.9 0-2.1-3-0.1-3z"/><path class="r" d="m356.6 301.6q10.1-0.1 20.1-0.1c1.9 0 2.1 3 0.2 2.9q-10.1 0-20.2 0.2c-1.9 0-2.1-2.9-0.1-3z"/><path class="r" d="m354.8 293.6q10.1-0.2 20.2-0.2c1.9 0 2.1 3 0.2 3q-10.1 0-20.2 0.2c-1.9 0-2.1-3-0.2-3z"/><path class="w" d="m356.5 286q5.6-0.8 11.3-1.4c2.8-0.4 7-1.6 9.7-0.1 2.6 1.4 4 5.4 5.2 7.9q2.5 5.3 4.3 10.9 1.6 5 2.7 10.1c0.5 2.7 1 5.3-1.3 7.1-4.8 4-13.4 3.5-19.3 3.4-3.6-0.1-4.1-5.7-0.6-5.7 5 0.1 9.9 0.1 14.6-1.4 1.8-0.6 1.6-0.7 1.2-2.6q-0.5-2.1-1-4.3-1-3.7-2.3-7.4-1.3-3.7-3-7.2c-0.6-1.3-1.2-2.9-1.9-4-1.1-1.7-1.1-1.5-2.8-1.6-2.4-0.1-5.1 0.5-7.5 0.8q-4.4 0.5-8.8 1.2c-3.5 0.5-4-5.2-0.5-5.7z"/><path class="s" d="m343.4 289.5c2.6-0.8 5.3-1.1 8-1.9q0.6-0.2 1.2-0.4c3.5-1.1 5.7 4.2 2.1 5.5q-1.3 0.5-2.7 0.9c-2.2 0.8-4.1 2.1-4 4.7 0.2 3.5 1.6 7.2 2.9 10.5q2 5.1 5.2 9.6c1.2 1.8 1.1 2.2 3.2 1.9q2.8-0.3 5.6-0.7c1.9-0.3 2.9 1.2 3.1 2.7 0.6 1.1 0.6 2.6-0.8 3.5-4.2 2.8-9.8 5.5-14.5 1.8-2.3-1.9-3.3-5.3-4.4-8q-2.1-4.8-4.2-9.6c-2-4.6-6.4-11.2-5.1-16.3 0.6-2.3 2.2-3.6 4.4-4.2z"/><path class="w" d="m396.6 307.1c7.8-0.8 15.3-2.2 22.9-3.8 5.1-1.1 10.1-1.9 15.1-3.5 4.9-1.6 9.7-3.3 14.6-4.7 3.7-1.1 15.2-5.5 17.6-0.7 1.4 2.9-1.5 6.4-3.2 8.5-2.6 3-5.2 6.1-8 9-8.1 8.5-17.4 16-27.5 22.1-8 4.9-16.6 9-25.7 10.9q-1.6 0.4-3.2 0.6c-0.4 0.1-0.9 0.2-1.3 0-0.6-0.3-0.9-1-1.1-1.6-3.2-10.3-5.8-20.7-7.8-31.2-0.2-1.4-0.5-2.9 0.2-4.1 1-1.9 5.5-1.3 7.4-1.5z"/><path class="r" d="m344.6 290.2c-1.5 0.2-2.5 1.8-1.9 3.3l9.8 28.3c0.4 1.3 1.7 2.1 2.9 1.9l12.4-1.8 9.2 26.8c-0.3-0.4-4.1-0.4-5.4-0.9-2.4-1-4.4-1.3-7-1.5-16.2-1.6-33.4-2.1-47.2 7.9-22.2 16.1-44 32.9-65.8 49.5-22.2 16.9-44.1 34-65.7 51.6q-0.6 0.6-1.3 1.1c-10.6 8.7-21.2 17.6-31.8 26.4q-8.3 6.8-16.6 13.7c-5.9 4.8-9.6 9.9-18 7.3-7.5-2.3-15-7.6-19.9-13.7-4.1-5-6.8-10.8-8.1-17.1-1.4-6.7-4-15.1 2.9-19.5 3.1-2 6.1-3.9 9-6.1 44.8-30.4 90.4-60.8 134.6-92.5q4.7-3.4 9.4-6.8c11.6-8.3 30.9-23.1 42.3-31.8 22-16.9 24.6-29.4 37.3-49.9 5.1-8.3 9.9-16.7 14.5-25.3l16.3 47.7z"/><path class="x" d="m379 218.1c16.7-3.1 57.8 17.4 68.6 21.9 10.8 4.5 3.8 13 3.8 13q-2.9 0.4-5.8 0.9-7.9 1.3-15.7 2.8-5.7 1.1-11.4 2.3-2.8 0.6-5.7 1.2c-1.5 0.3-2.9 1.1-4.4 1.6-1.6 0.5-3.3 1-4.9 1.7-3.1 1.2-6.5 3-9 5.2-0.8 0.8-2.2 2.8-1.7 4.2 0 0.1 26.3 73.2 26.3 73.2 0.3 0.8-0.3 1.8-1.2 1.8l-40.9 0.8c0 0 1.9-1.4 1.4-6.6-0.3-3.5-1-7-1.8-10.4-0.9-3.6-1.9-7.1-3-10.7l10.4-1.5c3.1-0.4 4.9-3.7 3.7-6.9l-9.3-24.4c-0.5-1.2-1.7-2-2.9-1.8l-12.1 1.5c-5.9-17.7-12.7-35.1-20.4-52.2q-1.4 2.7-2.8 5.4l-0.7-2.2c6.5-8.1 22.8-17.6 39.5-20.8z"/><path class="x" d="m373.6 321c1.1 3.6 2.1 7.1 3 10.7 0.8 3.4 1.5 6.9 1.8 10.4 0.5 5.2-1.4 6.6-1.4 6.6l-9.2-26.8z"/><path class="x" d="m363.4 287.9l-6.9 0.9-16.3-47.7q1.4-2.7 2.8-5.4c7.7 17.1 14.5 34.5 20.4 52.2z"/><path class="j" d="m255.3 403.5q-0.6 0.5-1.2 0.9c-23.5 18-46.9 36.3-69.9 55q-0.7 0.6-1.4 1.1c-11.3 9.3-22.6 18.8-33.9 28.1q-8.8 7.4-17.6 14.6c-6.4 5.2-10.3 10.7-19.3 7.9-8-2.5-15.9-8.2-21.2-14.7-4.3-5.3-7.2-11.5-8.6-18.1-1.5-7.2-4.3-16.2 3.1-20.9 3.3-2.1 6.5-4.1 9.6-6.4 42.5-28.9 87.6-59.1 129.8-89z"/><path class="o" d="m122.2 485.4c-4.3 4.9-11.9 5.4-16.8 1-4.9-4.4-5.4-11.9-1-16.8 4.4-5 11.9-5.4 16.8-1 5 4.4 5.4 11.9 1 16.8z"/><path class="u" d="m252.3 384.8l-9.3-12.7c-1.8-2.3-1.3-5.7 1.1-7.4 15.1-11.2 65.4-48.4 68.5-53.1 2.7-4.2 5.6-8.3 8.5-12.4 1.6-2.4 7-13.1 9.6-13.8 5.8-1.7 8.5 14.4 9.8 18.2 2.6 7.4 5 14.9 7.5 22.4 0.7 2.3-1 4.7-3.4 4.9-5.4 0.2-14.3 1.4-20.8 5.6-8.5 5.5-50.3 38.5-63.9 49.3-2.4 1.9-5.8 1.4-7.6-1z"/><path fill-rule="evenodd" class="r" d="m106.1 467.5c5.6-4.1 13.6-2.9 17.7 2.7 4.2 5.6 3 13.6-2.7 17.8-5.6 4.1-13.5 2.9-17.7-2.7-4.1-5.7-2.9-13.6 2.7-17.8zm0.8 1.1c-5 3.7-6.1 10.8-2.4 15.9 3.7 5 10.8 6.1 15.8 2.4 5.1-3.7 6.2-10.9 2.5-15.9-3.8-5-10.9-6.1-15.9-2.4z"/><path class="b" d="m188.8 409.3l6.6 5.3 7.5-0.8 1 1.4-1.8 1.3 6.4 1.1 3.4 3.9-1.6 6.7-5.6 4.4-6.6-2.3-5.4-6.3-9.4-6.9z"/><path class="c" d="m185.1 424.4l-76.8-48.3-7.6-12.5c-6.2-15.8-17.4-32.2-7.3-48.6 3.3-5.4 12.9-13.2 19.7-9.2 4.1 2.5 6.8 11.4 9 15.6q4.7 9 9.4 18.1c1.3 2.6 2.6 7 4.7 9l59.6 59.4z"/><path class="f" d="m114.7 209.4c8-0.5 17.7 1.9 23.9 6.7-2.8 7.8-8.8 17.3-16.1 24.3-7.3 7-15.9 12.3-24.6 17.2-1.9 1.1-3.9 2.2-6.1 2.7-4.1-6-7.2-13-7.4-20.3-0.6-16.2 15.7-29.7 30.3-30.6z"/><path class="f" d="m148 197.5c2.7-1 6.1-1.8 8.4 0 2.7 2.2 2.1 6.4 0.8 9.7-4.1 10.9-12.4 20.2-22.8 25.5-4.6 2.3-13.1 4.2-15.1-2.5-1.1-3.5 1.5-10.3 3.1-13.6 4.4-9.2 16.6-15.6 25.6-19.1z"/><path class="f" d="m614.1 452.1h-87.7l20.6-82.7h6.4q0-0.2-0.1-0.3c-1.2-5.1 0.2-12.2 0.7-17.3 1.1-11.3 3.6-22.5 7.3-33.2 1.5-4.3 3.6-8.2 8.2-9.8 3.8-1.4 8-2 12.1-1.8-4.8 2.8-7.3 8.9-9.8 13.8-2.6 5.2-4.6 10.8-5.7 16.5-1.2 5.8-1.6 11.7-2 17.5q-0.5 7.3-0.9 14.5l24.8-0.1c-0.4-4.7 0.6-10.5 1-14.8 1.2-11.3 3.6-22.5 7.3-33.2 1-2.9 2.2-5.9 4.7-7.8 3.3-2.5 8.5-2 11.3 1.1-5.5 7.5-9.3 16.3-11.2 25.4-1.2 5.8-1.5 11.6-1.9 17.5q-0.4 5.9-0.8 11.7h7.3z"/><path class="b" d="m474 375.8l-13.8-5.9 2.3-6 10.5 2-0.2-3.3 11.2 6.5-1.6 6.5z"/><path class="c" d="m614.5 350.6c-6.6 11.2-19.2 16.5-29.6 23.5-11.5 7.8-22.4 16.2-33.5 24.7l-73-20.1 2.5-13.1 61.5 5q13-9.1 26-18.1c7.6-5.2 14.4-12.2 22.5-16.6 5.1-2.7 11.1-4.3 16.8-3.1q2.1 0.5 3.7 1.4c5.8 3.1 6.8 10.1 3.1 16.4z"/><path class="y" d="m578.1 266.7c-2-3.2-3.6-7-5.9-9.7-2.8-3.2-7.5-4.9-8.9-8.9-1.7-5 1.3-10.6 5.9-12.6 2.7-1.2 5.8-1.4 8.8-1.3 1.5 0.1 3 0.3 4.3 0.9 2.6 1 4.5 3.5 4.9 6.3 0.3 2-0.2 4.1 0.6 5.9 2.6 6.1 9.9 7 15.4 8.4 5.7 1.5 11 1.7 15.9 5.4 7.5 5.8 10.2 16.8 7.1 25.8-3 9-11.2 15.8-20.5 18.2-5.1 1.4-0.8-2.5 0.5-3.8 2.6-2.5 4.8-5.6 6-9 1.5-4.4 1.1-9.8-2.1-13.3-2.8-3-7.1-4.1-11.2-5-2.5-0.5-5.3-1.4-7.9-1.4-1.9 0-3.4 0.5-5.3 0.2-3.5-0.7-5.8-3.2-7.6-6.1z"/><path class="f" d="m620.7 298.6c-1-1.9-0.8-3.6-0.3-5.6 0.6-2.3 0.4-4.8-0.6-7-0.8-1.8-4.1-4-3.2-5.7 1.1-2.2 2.9-5.9 5.6-6.2 2-0.2 3.7 1.2 5.1 2.6 7.1 7.4 11.5 17.4 12.3 27.6 0.1 1.7 0.1 3.4-0.4 5-0.5 1.5-1.8 3-3.4 3.4-2.4 0.5-4.7-1.2-6.4-2.9-3.2-3.2-6.6-7.1-8.7-11.2z"/><path class="f" d="m592.5 251.3c1.3-3.5 9.7-4.7 12.7-4.7 6.7-0.2 14.3 2 18.9 6.8 3.5 3.6 7.1 7.3 9.3 11.8 2.6 5.5 3.1 12.1 1.1 17.9-1.1 3.4-3 6.5-5.5 9.1-2.4 2.5-4.9 5.3-6.9 1.4-3.8-7.3-6.3-14.9-11.3-21.6-2.6-3.5-5.6-6.6-8.7-9.6-2.1-2.1-10.8-7.9-9.6-11.1z"/></g></svg>